<?xml version="1.0" encoding="UTF-8"?>
<svg id="Layer_2" data-name="Layer 2" xmlns="http://www.w3.org/2000/svg" viewBox="0 0 877.64 756.19">
  <defs>
    <style>
      .cls-1 {
        fill: #98cf94;
      }

      .cls-2 {
        fill: #09493a;
      }

      .cls-3 {
        fill: none;
        stroke: #231f20;
        stroke-width: 2px;
      }

      .cls-3, .cls-4 {
        stroke-miterlimit: 10;
      }

      .cls-4 {
        fill: #ed1750;
        opacity: .9;
        stroke: #d61c5c;
      }
    </style>
  </defs>
  <g id="Layer_1-2" data-name="Layer 1">
    <g>
      <polygon class="cls-1" points="612.89 363.74 620.75 352.34 630.85 358.79 623.4 370.85 612.89 363.74"/>
      <path class="cls-2" d="M269.31,474.96h9.35c.81,0,1.6-.25,2.26-.71l6.82-4.77c1.11-.78,2.55-.92,3.8-.38l12.87,5.63c.35,.15,.67,.36,.96,.62l.97,.87c.69,.61,1.08,1.49,1.08,2.41v5.18c0,.78,.48,1.48,1.21,1.76l2.25,.86c.33,.13,.68,.21,1.04,.25l15.34,1.74c.18,.02,.36,.03,.54,.03h44.09c1.05,0,2.05-.43,2.78-1.18l5.92-6.14c.74-.77,1.77-1.21,2.84-1.21h1.97c.41,0,.82-.06,1.22-.16l4.03-1.1c.76-.21,1.44-.63,1.96-1.21l3.1-3.47c.43-.48,.67-1.11,.67-1.75v-2.88c0-.7,.33-1.36,.89-1.78l5.26-3.91c.16-.12,.32-.26,.45-.41l5.76-6.34c.08-.09,.16-.19,.23-.29l6.58-9.44c.22-.31,.47-.6,.75-.85l9.76-8.9c.12-.11,.24-.21,.38-.3l9.18-6.4c.44-.31,.82-.71,1.1-1.18l5.56-9.34c.46-.78,1.23-1.33,2.11-1.53l6.49-1.44c.23-.05,.47-.08,.71-.08h.53c1.19,0,2.16,.97,2.16,2.16v3.33c0,.32,.39,.47,.6,.23l6.71-7.55,10.16-11.61c.33-.38,.74-.69,1.2-.91l6.22-3c.41-.2,.68-.62,.68-1.08v-2.06c0-.5,.35-.92,.83-1.03l13.21-2.8c.21-.04,.42-.07,.63-.07h5.75c.41,0,.82-.12,1.17-.34l2.82-1.79,5.13-2.82c.62-.34,1.34-.45,2.04-.3l8.02,1.69c.58,.12,1.17-.13,1.48-.63l8.37-13.38c.16-.26,.28-.55,.34-.85l2.32-11.36c.21-1.04,.71-1.99,1.45-2.75l6.31-6.55c.33-.34,.71-.62,1.13-.84l6.13-3.18c.91-.47,1.52-1.38,1.61-2.4l1.28-14.05c.06-.69-.14-1.37-.56-1.91l-3.9-5.05c-.39-.5-.48-1.17-.24-1.75l2.88-7.07c.06-.14,.13-.27,.2-.4l1.31-2.12c.68-1.1,2.38-.43,2.12,.84l-.44,2.14c-.03,.16-.06,.33-.07,.49l-.54,5.89c-.03,.36,.08,.71,.32,.98l1.82,2.05c.1,.11,.28,.05,.3-.09l1.39-9.71c.06-.39,.2-.76,.43-1.08l6.25-8.69c.27-.38,.51-.79,.7-1.21l5.91-12.85c.53-1.15,.8-2.4,.8-3.67v-6.07c0-.95,.3-1.87,.86-2.63l10.95-14.96c.45-.61,.82-1.29,1.09-2l21.26-55.75c.58-1.51,1.44-2.89,2.55-4.07l21.02-22.32c1.3-1.38,2.92-2.43,4.71-3.06l2.13-.74c.82-.29,1.56-.75,2.18-1.35l45.37-43.87,12.49-12.19,13.11-10.11c1-.77,2.11-1.39,3.29-1.83l6.56-2.46c.93-.35,1.81-.83,2.6-1.43l20.47-15.42c.38-.29,.75-.61,1.08-.96l3.46-3.63c1.58-1.66,3.66-2.75,5.92-3.1l5.38-.85c1.77-.28,3.44-1.03,4.82-2.18l10.37-8.6c1.21-1.01,2.21-2.26,2.91-3.67l5.25-10.51c.45-.91,1.04-1.74,1.73-2.48l7.66-8.16c.49-.52,.92-1.09,1.28-1.71l13.33-22.82c1.28-2.19,3.24-3.89,5.58-4.86l16.38-6.75c.48-.2,1-.3,1.52-.3h4.31c1.57,0,3.02,.82,3.82,2.16l.84,1.4c.89,1.49,2.67,2.2,4.35,1.72l8.33-2.35c.48-.14,.94-.33,1.37-.58l11.12-6.51c.48-.28,1-.5,1.54-.64l9.55-2.53,5.22-1.82c.76-.27,1.51,.43,1.31,1.21l-3.04,11.67c-.09,.34-.2,.68-.34,1.01l-5.33,12.79c-.37,.89-.86,1.72-1.46,2.47l-5.05,6.37c-.7,.88-1.24,1.88-1.61,2.95l-3.33,9.75c-.26,.75-.43,1.53-.53,2.32l-2.3,19.53-2.29,19.73c-.1,.86-.09,1.72,.04,2.58l1.87,12.54c.05,.33,.12,.66,.2,.98l2.92,11.09,2.28,8.34c.31,1.13,.44,2.31,.39,3.48l-.53,12.55-.48,8.23c-.08,1.4,.15,2.81,.67,4.12l1.07,2.68c.36,.9,.25,1.91-.29,2.71l-3.47,5.11c-.55,.82-.99,1.71-1.3,2.65l-2.89,8.9c-.21,.64-.49,1.25-.85,1.82l-7.08,11.33-2.29,4.12c-.5,.9-1.15,1.71-1.92,2.39l-3.18,2.82c-.73,.65-1.14,1.57-1.14,2.55v2.75c0,.39-.11,.77-.31,1.1l-3.1,5c-.37,.59-.65,1.22-.86,1.89l-6.09,19.72-4.32,15.27c-.16,.58-.26,1.18-.28,1.78l-.52,12.85c-.03,.78,.04,1.56,.22,2.32l2.65,11.33c.28,1.22,.8,2.37,1.51,3.39l2.67,3.84c.74,1.06,1.2,2.28,1.35,3.57l1.03,8.85c.18,1.51,.05,3.05-.38,4.51l-2.54,8.76c-.12,.4-.27,.79-.45,1.16l-4.94,9.89c-.17,.35-.37,.68-.59,1l-7.74,11.35c-.7,1.03-1.64,1.88-2.74,2.49l-2.76,1.52c-.93,.51-1.27,1.67-.78,2.6l1.18,2.22c.4,.76,.28,1.7-.3,2.33l-2.09,2.26c-.4,.43-.75,.89-1.05,1.39l-11.33,18.51c-.45,.74-.59,1.63-.38,2.47l.45,1.79c.05,.22,.34,.27,.46,.09l4.99-7.13c.22-.31,.7-.09,.61,.28l-1.07,4.1c-.08,.32,.3,.56,.55,.34l3.54-3.14c.22-.19,.54,.06,.4,.32l-7.7,14.03c-.07,.13-.15,.26-.23,.39l-15.02,23.85c-.26,.41-.36,.9-.29,1.38l.18,1.2c.2,1.28-.19,2.58-1.05,3.55l-11.98,13.51c-.64,.73-1.1,1.6-1.32,2.54l-5.75,24.15-9.45,36.26-5.5,18.82c-.19,.65-.27,1.33-.23,2l.5,8.21c.03,.55,0,1.1-.08,1.64l-.89,5.76c-.53,3.45-2.15,6.64-4.62,9.11l-9,9-27.65,27.06c-.66,.64-1.25,1.35-1.76,2.11l-9.66,14.27c-1.95,2.88-4.56,5.27-7.61,6.95l-13.03,7.19-12.19,9.75-29.55,14.02-24.98,25.59-21.02,10.05-36.23,23.97c-2.82,1.86-6.06,2.99-9.42,3.27l-8.76,.73c-2.89,.24-5.8-.17-8.5-1.21l-6.24-2.39-6-1.71c-1.66-.48-3.42-.55-5.12-.22l-2.32,.45c-3.96,.77-8.07,.41-11.84-1.03l-3.83-1.47c-.5-.19-1.01-.35-1.53-.49l-9.54-2.45c-1.04-.27-2.1-.45-3.18-.53l-.37-.03c-5.64-.46-6.66-2.91-16.47-5.91-1.44-.44-2.95-.69-4.46-.72l-2.92-.06-2.47-.09c-3.61-.14-7.09,1.36-9.49,4.07l-.05,.05c-.56,.63-1.39,.9-2.19,.71-1.12-.26-2.75-.64-3.92-.91-.96-.22-1.93-.35-2.9-.41h-.07c-2.87-.15-5.72-.62-8.48-1.39-.32-.09-.64-.18-.97-.27-3.8-1.06-7.79-1.21-11.66-.44h0c-2.13,.42-4.07,1.51-5.54,3.11l-.11,.12c-.52,.57-1.43,.56-1.94-.04l-.06-.07c-1.95-2.29-4.98-3.36-7.94-2.8l-.08,.02c-.95,.18-1.63,1.01-1.63,1.97h0c0,.77-.91,1.18-1.49,.67l-3.63-3.23c-2.04-1.82-4.45-3.18-7.07-3.99h0c-.69-.21-1.43-.04-1.95,.45-.41,.39-.86,.87-1.41,1.27-1.2,.87-2.82,.86-4.07,.07l-.12-.08c-.27-.17-.52-.36-.76-.58l-2.11-1.88c-2.88-2.28-6.89-2.51-10-.56h0c-1.03,.64-2.39,.08-2.65-1.11l-1.25-5.61c-.41-1.85-1.65-3.41-3.35-4.23l-4.91-2.36-11.5-5.35c-1.06-.49-2.2-.77-3.36-.81l-9.07-.36c-2.96-.12-5.8,1.19-7.64,3.51l-4.69,5.91c-.4,.5-.73,1.05-1,1.64l-3.38,7.56c-.92,2.07-1.4,4.31-1.4,6.57v3.45c0,.89,.1,1.78,.3,2.64l.27,1.15c.19,.82-.34,1.63-1.17,1.78h0c-1.21,.22-2.45,.22-3.66-.01l-1.57-.29c-.97-.18-1.97-.12-2.91,.19l-9.84,3.19-2.73,.76c-1.8,.5-3.42,1.5-4.67,2.88l-.69,.76c-.29,.32-.56,.65-.81,.99l-.54,.75c-1.74,2.71,.75,6.95-.84,8.84,0,0-.04,.11-.37,.26-.72,.33-3.18,0-3.18,0-2.14,0-4.09,1.26-4.96,3.22-.14,.3-.46,.1-.86-.12-.66-.37-1.58-2.04-2.02-2.9-.18-.35-.42-.67-.69-.95l-1.69-1.69c-.78-.78-1.84-1.22-2.94-1.22h-3.77c-1.32,0-2.56,.67-3.28,1.78l-1.29,1.99c-.56,.87-1.54,1.37-2.58,1.33l-4.51-.2c-.54-.02-1.05-.23-1.47-.57l-6.54-5.53c-.49-.41-1.09-.67-1.72-.74l-5.47-.61c-1.13-.13-2.27,.24-3.11,1.01l-11.13,10.09c-.42,.38-.96,.59-1.52,.59h-6.38c-1,0-1.95,.44-2.6,1.21l-4.64,5.52c-.47,.56-1.17,.89-1.91,.89h-6.94c-1.07,0-2.1,.36-2.93,1.03l-1.24,.99c-.35,.28-.73,.5-1.15,.66l-2.41,.93c-.61,.24-1.17,.6-1.63,1.06l-3.19,3.19c-.25,.25-.47,.52-.66,.81l-2.51,3.77c-.16,.24-.3,.5-.42,.76l-1.56,3.46c-.55,1.22-2,1.75-3.21,1.17l-3.8-1.82c-.98-.47-2.14-.32-2.96,.39l-2.14,1.83c-.5,.43-1.14,.66-1.8,.66h-13.33c-.57,0-1.12,.2-1.56,.57l-8.04,6.79c-.67,.56-1.51,.87-2.38,.87h-11.95c-.48,0-.95,.09-1.39,.26l-9.54,3.71c-.5,.2-.96,.48-1.36,.85l-2.47,2.28c-.58,.53-1.33,.83-2.11,.83h-1.26c-.91,0-1.73,.52-2.13,1.34l-3.08,6.37c-.53,1.09-1.56,1.84-2.76,2l-14.23,1.9c-1.36,.18-2.73-.21-3.8-1.07l-2.23-1.82c-.6-.49-1.42-.61-2.14-.32l-11.76,4.71c-.51,.21-1.07,.28-1.62,.22l-15.74-1.69c-.32-.03-.63-.11-.93-.23l-6.42-2.61c-1.61-.65-2.4-2.46-1.79-4.09l1.1-2.94c.33-.87,.06-1.85-.67-2.43l-4.51-3.61c-.25-.2-.46-.44-.63-.7l-5.23-8.37c-.39-.62-1.01-1.04-1.73-1.17l-1.06-.19c-.74-.13-1.38-.59-1.74-1.25l-.46-.82c-.32-.57-.42-1.23-.3-1.87l.8-4.2c.14-.75-.11-1.52-.67-2.04l-2.86-2.64c-.13-.12-.27-.23-.41-.32l-2.1-1.4c-.28-.18-.51-.42-.69-.7l-2.57-3.97c-.33-.51-.51-1.1-.51-1.71v-3.69c0-.77-.16-1.54-.46-2.24l-.49-1.14c-.54-1.27-1.71-2.17-3.08-2.36l-.72-.1c-.77-.11-1.34-.77-1.34-1.54v-14.35c0-.5,.09-.99,.27-1.45l2.7-7.03c.05-.13,.11-.25,.18-.37l4.65-8.21c.28-.5,.66-.94,1.11-1.29l8.43-6.58c.42-.33,.9-.59,1.4-.78l8.61-3.13c.37-.13,.54-.55,.38-.9l-1.31-2.83c-.14-.31-.36-.57-.64-.77l-1.94-1.34c-.37-.25-.13-.83,.31-.74l9.02,1.71c.23,.04,.46,.05,.69,.02l4.2-.55c1.51-.2,2.78-1.23,3.28-2.67l.91-2.62c.39-1.11-.23-2.32-1.35-2.67l-.76-.23c-.43-.13-.49-.71-.1-.93l3.85-2.12c.76-.42,1.66-.47,2.46-.16l3.93,1.53c.19,.07,.39,.11,.59,.11h8.59c.74,0,1.43-.32,1.92-.87l2.72-3.14c.31-.36,.54-.79,.67-1.25l.47-1.71c.15-.54-.12-1.11-.63-1.35l-2.69-1.24c-.25-.12-.48-.28-.67-.49l-7.34-7.87c-.58-.62-1.36-1.03-2.2-1.16l-.7-.11c-1.25-.19-2.35-.91-3.03-1.98l-.11-.18c-.43-.67,.03-1.55,.82-1.59l2.7-.15c.64-.04,1.23-.35,1.62-.86l2.49-3.32c.36-.48,.56-1.07,.56-1.68h0c0-1.48-.85-2.82-2.19-3.45l-1.47-.69c-.88-.41-1.33-1.4-1.07-2.34l.77-2.77c.18-.66,.75-1.14,1.43-1.21l3.15-.35c.69-.08,1.21-.66,1.21-1.35v-1.67c0-.11,.01-.22,.03-.32l2.31-10.99c.06-.27,.24-.49,.49-.61l13.76-6.31c.31-.14,.65-.22,.99-.22h7.73c1.37,0,2.51,1.04,2.64,2.4l.29,3.04c.06,.63,.27,1.24,.62,1.77l3.14,4.83c.2,.3,.35,.62,.48,.96l1.16,3.24c.12,.34,.3,.67,.53,.95l8.89,11.05c.54,.67,1.21,1.2,1.99,1.57l4.29,2.04c.6,.29,1.29,.33,1.93,.13l4.98-1.58c.48-.15,1-.18,1.49-.08l.94,.19c.87,.17,1.66,.64,2.23,1.33l1.17,1.4c.62,.75,1.57,1.15,2.54,1.07l.98-.08c.81-.06,1.43-.74,1.43-1.55v-1.87c0-.73,.52-1.35,1.24-1.49l1.74-.32c.25-.05,.48-.14,.69-.28l4.97-3.23c.52-.34,.94-.82,1.2-1.39l2.14-4.67c.48-1.05,1.6-1.67,2.74-1.51l2.92,.4c1.09,.15,2.15-.46,2.57-1.48l.96-2.32c.28-.68,.95-1.13,1.68-1.13h4.24c.8,0,1.57-.3,2.16-.83l5.79-5.26,3.44-2.91c.35-.29,.74-.52,1.16-.68l3.85-1.42c.83-.31,1.5-.94,1.85-1.75l6.12-14.11c.22-.51,.54-.97,.95-1.36l4.82-4.58c.44-.41,.77-.92,.98-1.49l3.2-8.61c.29-.77,.86-1.39,1.6-1.75l13.22-6.35c.57-.27,1.05-.69,1.41-1.2l9.16-13.2c.42-.6,.56-1.35,.39-2.06l-1.58-6.53c-.18-.75-.7-1.39-1.4-1.72l-3.56-1.68c-.33-.16-.63-.38-.88-.65l-1.11-1.23c-.78-.87-1.07-2.08-.75-3.21l2.58-9.16c.17-.6,.47-1.16,.87-1.63l12.47-14.74c.22-.26,.39-.54,.52-.85l3.3-8.13c.3-.74,.89-1.32,1.63-1.61l8.08-3.18c.54-.21,1.11-.31,1.69-.29l7.06,.26c.19,0,.38,.03,.57,.06l8.95,1.63c.54,.1,1.1,.07,1.62-.09l3.18-.93c.75-.22,1.56-.05,2.17,.45l4.28,3.57c.16,.13,.33,.25,.52,.34l3.3,1.65c.45,.23,.96,.34,1.46,.32l2.25-.06Z"/>
      <path class="cls-2" d="M538.16,691.08c-1.69-.84-1.73-3.23-.07-4.12l29.02-15.91,26.88-15.33c1.56-.89,3.05-1.88,4.47-2.98l19.52-15.07c2.41-1.86,4.56-4.03,6.41-6.46l4.71-6.2c1.64-2.15,3.83-3.82,6.34-4.82l16.44-6.53c1.55-.62,3.01-1.46,4.31-2.5l12.84-10.22c.99-.79,2.05-1.47,3.18-2.05l12.24-6.23c2.44-1.24,4.56-3.01,6.22-5.19l7.58-9.94s.07-.08,.1-.12l22.9-23.89,13.05-13.35c1.05-1.08,2.23-2.03,3.51-2.83l5.3-3.34c.28-.17,.49-.44,.59-.75l3.31-9.78s.02-.07,.03-.11h0c.4-1.64,2.81-1.35,2.81,.34v2.46c0,.06,0,.11-.01,.17l-.59,4.9c-.15,1.25,1.27,2.07,2.28,1.31l2.18-1.65c.39-.3,.6-.77,.56-1.26l-1.04-11.86c-.04-.44-.06-.89-.06-1.33v-4.32c0-.73,.6-1.33,1.33-1.33h0c.73,0,1.33,.6,1.33,1.33v4.81c0,.67,.05,1.34,.15,2l.85,5.66,1.02-.9c.3-.27,.48-.66,.48-1.07v-8.45c0-.37,.01-.74,.04-1.11l.73-10.79c.04-.54,.49-.96,1.03-.96h0c.57,0,1.03,.46,1.03,1.03v14.34c0,1.06,.08,2.13,.24,3.18l.9,5.94c.01,.09,.03,.17,.06,.25l2.95,8.53,2.31,6.6s.03,.08,.05,.11l1.7,3.78c.84,1.86,1.27,3.87,1.27,5.9v1.75c0,1.97-.38,3.92-1.12,5.74l-1.92,4.72c-1.06,2.62-2.79,4.91-5,6.66l-9.22,7.28s-.06,.04-.09,.06l-16.64,11.18c-2.58,1.74-4.2,4.59-4.36,7.69l-.29,5.61c-.09,1.82-.43,3.61-1,5.34l-7.11,21.71c-.37,1.14-.93,2.21-1.65,3.17l-23.6,31.53c-.45,.6-.95,1.16-1.49,1.68l-19.18,18.16c-.73,.69-1.38,1.46-1.94,2.29l-13.75,20.54c-1.18,1.77-2.66,3.32-4.37,4.58l-12.21,9.01c-2.07,1.52-4.49,2.49-7.04,2.8l-16.03,1.98s-.08,0-.11,0l-13.83,.59-3.47,.15c-.62,.16-1.04-.63-.57-1.06l1.41-1.28c.95-.86,1.61-2.01,1.89-3.26l.82-3.81c.35-1.61,1.43-2.96,2.92-3.65l15.15-7.02c.59-.27,1.13-.63,1.61-1.06l27.07-24.2c1.21-1.08,2.3-2.3,3.24-3.62l17.43-24.49,11.84-17.87c.04-.06,.08-.11,.12-.16l3.82-4.29c2.17-2.44,3.7-5.37,4.46-8.54l1.02-4.24c.49-2.06,.71-4.18,.64-6.29l-.25-7.62c-.07-2.02,.18-4.04,.73-5.98l1.32-4.67c1.08-3.82,3.3-7.22,6.35-9.75h0c.83-.68,.63-2-.36-2.41l-1.02-.43c-.63-.26-1.35-.05-1.74,.51l-3.71,5.48c-3.3,4.88-5.19,10.58-5.45,16.46l-.28,6.48-.55,6.7c-.37,4.55-2.13,8.88-5.02,12.42l-2.73,3.33-12.54,16.8s-.03,.05-.05,.07l-18.09,27.47c-.04,.07-.09,.13-.15,.19l-15.08,16.12c-.66,.71-1.4,1.34-2.21,1.88l-12.42,8.35s-.07,.05-.11,.07l-11.71,6.37c-1.43,.78-2.67,1.86-3.63,3.17l-2.48,3.83c-.44,.68-.85,1.37-1.22,2.09l-1.05,2.01c-.84,1.24-.75,3.09-2.63,3.65l-11.87,.59c-3.11,.16-6.16-.9-8.5-2.95l-8.63-7.53c-1.24-1.08-2.55-2.06-3.94-2.94l-4.78-3.04c-.36-.23-.71-.48-1.06-.73l-8.72-6.63c-1.32-1-2.74-1.88-4.22-2.61l-12.17-6.01Z"/>
      <path class="cls-1" d="M640.73,491.97h10.86c.93,0,1.84-.25,2.63-.73l2.42-1.45,11.71,7.81c.9,.6,1.67,1.37,2.28,2.28h0c.54,.81-.04,1.9-1.02,1.9h-2.14c-1.7,0-3.22,1.07-3.81,2.67l-.07,.18c-.28,.76-.46,1.56-.54,2.37l-.31,3.1c-.2,1.95-.04,3.92,.46,5.82l.33,1.25c.46,1.75,.09,3.62-1.01,5.06l-2.98,3.89-5.84,8.1c-.46,.64-.76,1.39-.86,2.17l-.23,1.74c-.16,1.22-1.49,1.9-2.58,1.33l-4-2.1c-.44-.23-.91-.38-1.41-.45l-4.28-.57c-.28-.04-.56-.1-.83-.18l-3.08-.95c-.77-.24-1.6-.05-2.2,.48l-.66,.59c-1.07,.95-2.41,1.55-3.83,1.72l-2.91,.34c-.72,.08-1.44,.05-2.15-.11l-6.93-1.57-7.19-2.01c-1.17-.33-2.43,0-3.28,.86l-1.88,1.88-10.9-7.63,14.07-23.05c1.98-3.24,4.71-5.95,7.96-7.9l2.76-1.65c3.31-1.99,6.96-3.34,10.77-3.99l3.3-.57c2.43-.42,4.9-.63,7.36-.63Z"/>
      <polygon class="cls-1" points="681.12 382.69 693.92 364.13 713.12 373.41 713.12 389.73 713.12 396.13 710.24 396.13 681.12 382.69"/>
      <polygon class="cls-1" points="585.74 435.5 580.94 447.66 596.62 452.46 600.78 442.22 585.74 435.5"/>
      <polyline class="cls-3" points="514.88 393.07 573.63 418.25 617.7 438.54 678.56 478.41 713.12 500.79"/>
      <polyline class="cls-3" points="511.03 401.81 513.13 404.96 585.74 435.5 605.11 443.98 707.58 509.18"/>
      <polyline class="cls-3" points="704.09 339.56 700.94 350.75 693.92 364.13 661.07 417.9 651.97 430.84 641.83 452.46 635.19 458.94 628.62 458.94 614 467.21 596.72 479.45 590.86 479.45 562.09 491.7 535.51 507.08 532.02 509.18 516.98 500.79 503.69 487.85 517.33 472.11 526.07 452.46 530.27 441.68 530.97 429.44 535.51 420.35 541.81 408.11 561.04 365.79 572.93 345.16 553 327.67 548.1 327.67"/>
      <polyline class="cls-3" points="670.84 329.42 663.17 352.15 640.43 389.57 614 435.5 600.78 455.5 590.86 479.45"/>
      <line class="cls-3" x1="605.45" y1="448.44" x2="707.58" y2="513.38"/>
      <polyline class="cls-3" points="667.57 483.72 700.24 438.54 729.27 457.07"/>
      <polyline class="cls-3" points="755.85 393.07 693.92 364.13 664.23 349.01 649.18 347.6 642.53 342.36 632.68 337.11 630.85 327.67 611.41 315.43 605.45 311.76 598.47 307.91"/>
      <polyline class="cls-3" points="580.94 578.95 605.45 541.18 590.86 529.99 611.06 498.17 629.24 489.79 653.62 488.02 643.23 488.02 699.89 393.07 700.87 391.58"/>
      <polyline class="cls-3" points="724.02 479.45 626.83 413.2 558.79 370.76 540.26 360.1 535.86 357.57"/>
      <polyline class="cls-3" points="645.81 443.98 594.52 411.6 587.27 406.88 582.73 398.84 533.76 378.56 527.47 383.8 524.9 397.37 519.59 407.68 502.29 446.93 513.48 446.93 524.67 443.98 530.27 441.68 594.52 469.49"/>
      <polyline class="cls-3" points="695.34 273.63 685.55 273.63 614 386.6 607.36 401.05 598.47 414.08 589.05 425.35 585.74 435.5 574.05 460.63"/>
      <polyline class="cls-3" points="572.93 345.16 621.06 375.45 640.43 389.57 670.9 401.81 689.88 409.84 741.86 431.01"/>
      <polyline class="cls-3" points="614 386.6 679.16 427.81 700.24 438.54"/>
      <path class="cls-4" d="M656.52,467.17c0,3.84,5.57,8.34,6.16,11.94,0,.06,.09,.06,.09,0,.55-3.88,6.17-8.08,6.17-11.93,0-4.06-2.78-7.35-6.21-7.35s-6.21,3.29-6.21,7.35Z"/>
      <path class="cls-4" d="M623.73,461.85c0,3.84,5.57,8.34,6.16,11.94,0,.06,.09,.06,.09,0,.55-3.88,6.17-8.08,6.17-11.93,0-4.06-2.78-7.35-6.21-7.35s-6.21,3.29-6.21,7.35Z"/>
      <path class="cls-4" d="M651.19,350.03c0,3.84,5.57,8.34,6.16,11.94,0,.06,.09,.06,.09,0,.55-3.88,6.17-8.08,6.17-11.93,0-4.06-2.78-7.35-6.21-7.35s-6.21,3.29-6.21,7.35Z"/>
      <path class="cls-4" d="M628.49,348.17c0,3.84,5.57,8.34,6.16,11.94,0,.06,.09,.06,.09,0,.55-3.88,6.17-8.08,6.17-11.93,0-4.06-2.78-7.35-6.21-7.35s-6.21,3.29-6.21,7.35Z"/>
      <path class="cls-4" d="M706.91,512.42c0,3.84,5.57,8.34,6.16,11.94,0,.06,.09,.06,.09,0,.55-3.88,6.17-8.08,6.17-11.93,0-4.06-2.78-7.35-6.21-7.35s-6.21,3.29-6.21,7.35Z"/>
      <path class="cls-4" d="M615.66,441.67c0,3.84,5.57,8.34,6.16,11.94,0,.06,.09,.06,.09,0,.55-3.88,6.17-8.08,6.17-11.93,0-4.06-2.78-7.35-6.21-7.35s-6.21,3.29-6.21,7.35Z"/>
      <path class="cls-4" d="M617.19,368.53c0,3.84,5.57,8.34,6.16,11.94,0,.06,.09,.06,.09,0,.55-3.88,6.17-8.08,6.17-11.93,0-4.06-2.78-7.35-6.21-7.35s-6.21,3.29-6.21,7.35Z"/>
      <path class="cls-4" d="M588.31,428.7c0,3.84,5.57,8.34,6.16,11.94,0,.06,.09,.06,.09,0,.55-3.88,6.17-8.08,6.17-11.93,0-4.06-2.78-7.35-6.21-7.35s-6.21,3.29-6.21,7.35Z"/>
      <path class="cls-4" d="M594.52,402.12c0,3.84,5.57,8.34,6.16,11.94,0,.06,.09,.06,.09,0,.55-3.88,6.17-8.08,6.17-11.93,0-4.06-2.78-7.35-6.21-7.35s-6.21,3.29-6.21,7.35Z"/>
      <path class="cls-4" d="M543.76,376.24c0,3.84,5.57,8.34,6.16,11.94,0,.06,.09,.06,.09,0,.55-3.88,6.17-8.08,6.17-11.93,0-4.06-2.78-7.35-6.21-7.35s-6.21,3.29-6.21,7.35Z"/>
      <line class="cls-3" x1="682.66" y1="383.41" x2="748.63" y2="414.1"/>
      <polyline class="cls-3" points="684.85 482.48 674.36 500.79 600.78 455.5"/>
      <polyline class="cls-3" points="701.37 518.86 674.36 500.79 670.16 511 666.05 520.98 656.52 537.34 650.04 539.47 636.15 539.47 624.7 538.23 612.89 539.47 605.45 541.18"/>
      <polyline class="cls-3" points="679.08 505.07 670.84 523.28 661.51 535.83 652.11 545.52 636.15 553.1 615.66 564 603.89 569.76 594.52 578.95"/>
      <polyline class="cls-3" points="656.52 537.34 668.93 534.97 690.19 549.29 692.21 550.85 698.42 542.61 702.72 532.95 676.29 511.24 670.16 511"/>
      <polyline class="cls-3" points="724.02 471.89 688.4 529.38 677.67 544.14 668.93 555.32 656.52 564.49 642.82 580.6 632.68 590.22 626.89 595.81"/>
      <polyline class="cls-3" points="692.21 550.85 683.93 564.49 666.26 578.95 653.41 585.3 640.9 590.66 632.68 599.39"/>
      <path class="cls-4" d="M701.37,530.63c0,3.84,5.57,8.34,6.16,11.94,0,.06,.09,.06,.09,0,.55-3.88,6.17-8.08,6.17-11.93,0-4.06-2.78-7.35-6.21-7.35s-6.21,3.29-6.21,7.35Z"/>
    </g>
  </g>
</svg>